# xmcd
#
# Track frame offsets: 
#        150
#        20454
#        35482
#        51218
#        67666
#        86967
#        103803
#        123354
#        141482
#        160669
#
# Disc length: 2404 seconds
#
# Revision: 0
# Processed by: cddbd v1.5.2PL0 Copyright (c) Steve Scherf et al.
# Submitted via: ExactAudioCopyFreeDBPlugin 1.0
#
DISCID=8509620a
DTITLE=Carwyn Ellis and Rio 18 - Jóia!
DYEAR=1900
DGENRE=
TTITLE0=Unman
TTITLE1=Tywydd Hufen Iâ
TTITLE2=Dant Melys
TTITLE3=Duwis Y Dre
TTITLE4=Gwên
TTITLE5=Olion
TTITLE6=Ymosodwyr Anweledig
TTITLE7=Hen Beth Cas
TTITLE8=Undiú
TTITLE9=Diolch Amdani
EXTD=
EXTT0=
EXTT1=
EXTT2=
EXTT3=
EXTT4=
EXTT5=
EXTT6=
EXTT7=
EXTT8=
EXTT9=
PLAYORDER=
